<svg width="19" height="32" viewBox="0 0 19 32" fill="none" xmlns="http://www.w3.org/2000/svg">
<path fill-rule="evenodd" clip-rule="evenodd" d="M9.49703 0C9.94381 0 10.3673 0.199161 10.6523 0.543262L18.6025 10.1433C19.1309 10.7813 19.042 11.7269 18.404 12.2553C17.766 12.7837 16.8204 12.6948 16.292 12.0567L9.49703 3.85174L2.70207 12.0567C2.17367 12.6948 1.22809 12.7837 0.590055 12.2553C-0.0479836 11.7269 -0.13687 10.7813 0.391521 10.1433L8.34175 0.543262C8.62672 0.199161 9.05025 0 9.49703 0ZM9.49703 31.8C9.05025 31.8 8.62672 31.6008 8.34176 31.2567L0.391523 21.6567C-0.136867 21.0187 -0.0479812 20.0731 0.590057 19.5447C1.2281 19.0163 2.17368 19.1052 2.70207 19.7432L9.49703 27.9482L16.292 19.7432C16.8204 19.1052 17.766 19.0163 18.404 19.5447C19.042 20.0731 19.1309 21.0187 18.6025 21.6567L10.6523 31.2567C10.3673 31.6008 9.94381 31.8 9.49703 31.8ZM9.49705 17.5C10.3752 17.5 11.0871 16.7836 11.0871 15.9C11.0871 15.0163 10.3752 14.3 9.49705 14.3C8.61889 14.3 7.907 15.0163 7.907 15.9C7.907 16.7836 8.61889 17.5 9.49705 17.5Z" fill="#F0B37A"/>
</svg>
